<svg class="box" viewBox="0 0 800 585" fill="none" xmlns="http://www.w3.org/2000/svg">
<path d="M508.61 428.46C508.07 426.22 506.88 422.41 504.69 415.42L482.67 296.35L478.17 282.06L531.66 265.62L492.68 191.84L446.39 184.6L443.3 169.4L478.17 155.33L451.63 108.83L400.43 101.12L348.09 108.85L323.55 154.95L355.93 169.33L351.53 185.01L306.65 193.73L268.03 261.22L323.17 282.04L318.25 297.96L317.61 297.89L298.67 410.45L286.29 450.58C285.56 451.15 285.02 451.93 284.75 452.86C283.71 456.43 286.23 459.21 296.51 465.77L297.15 466.18C301.04 468.7 310.15 474.61 319.63 474.61C326.2 474.61 334.58 471.74 339.31 459.02C346.03 463.96 358.65 475.11 363.03 491.64L363.7 494.16C369.73 517.03 371.77 524.74 394.21 542.97L398.01 546.06L400.37 541.77C400.52 541.49 415.92 513.95 443.96 505.75C475.02 496.66 490.52 483.13 491.1 464.51C494.99 466.63 500.58 471.26 505.41 481.29L509.34 489.44L512.86 481.1C513.25 480.18 522.18 458.32 508.71 428.47L508.61 428.46Z" fill="white"/>
<path d="M503.28 252.61L480.5 206.79L430.93 198.79L422.65 155.04L452.65 142.56L440.77 120.44L400.93 114.17L360.32 120.44L349.25 142.56L378.54 155.96L367.19 198.88L319.7 208.39L297.22 250.02L350.98 270.08L377.43 297.24L392.46 295.24L421.79 296.49L450.09 267.43L503.28 252.61ZM401.02 256.94L350.83 227.54L400.15 210.02L449.46 227.23L401.02 256.94Z" fill="black"/>
<path d="M425.96 10.5501C425.96 10.5501 398.13 -8.29987 391.84 6.96013C385.56 22.2201 392.74 37.4901 392.74 37.4901C392.74 37.4901 397.23 18.6301 425.96 10.5501Z" fill="#30F1DD"/>
<path d="M546.74 293.51H546.72C546.58 284.12 550.39 271.68 560.99 258.73C579.38 236.25 593.68 206.11 576.32 164.73C560.06 126 513.84 115.02 507.98 113.77L507.68 113.11C507.69 113.31 507.69 113.51 507.7 113.71C507.5 113.67 507.35 113.64 507.35 113.64C507.35 113.64 505.43 124.75 498.15 128.2C490.87 131.65 478.61 126.28 468.26 110.19C458.52 95.04 460.98 77.62 467.88 74.17C474.78 70.72 487.16 76.09 499.17 92.18C487.93 14.53 431.6 31.49 431.6 31.49C431.6 31.49 432.33 55.63 414.05 61.48C395.76 67.33 391.38 52.7 391.38 52.7C391.38 52.7 379.99 65.88 355.12 76.85C330.25 87.82 313.73 74.8 304.03 103.41C297.03 124.08 315.09 144.42 315.09 144.42C308.51 162.71 292.64 188 283.86 188C267.96 188 267.04 169.37 267.04 169.37C267.04 169.37 255.03 173.07 228.23 203.56C202.51 232.82 209.99 254.56 234.13 277.24C246.33 288.7 254.51 294 259.07 301.44L231.18 417.85L232.06 424.28L232.64 424.18C239.09 450.57 248.94 469.47 257.9 482.3C261.62 488.07 265.96 493.21 270.76 497.83C275.6 502.68 278.82 504.87 278.82 504.87V504.85C297.44 519.5 320.37 528.48 338.71 537.46C373.09 554.28 402.34 585 402.34 585C408.57 575.92 415.69 569.15 423.43 563.77C432.59 558.03 444.74 552.81 462.1 546.09C489.38 536.9 518.85 528.69 543.61 497.8C561.61 475.35 569.24 446.08 572.14 420.19L572.28 420.2L573.81 407.43L547.25 299.64L546.74 293.51ZM479.22 297.33L500.66 413.29L500.26 413.28C500.6 414.35 500.92 415.38 501.23 416.38L501.28 416.64H501.31C503.91 424.96 505.57 430.31 505.48 430.11C518.37 458.68 509.59 479.47 509.59 479.47C500.08 459.72 487.19 458.63 487.19 458.63C490.12 479.84 473.29 493.01 443.31 501.78C413.32 510.56 397.29 539.76 397.29 539.76C375.11 521.74 374.07 515.42 367.49 490.56C360.91 465.69 337.5 452.53 337.5 452.53C330.07 483.63 304.42 465.61 299.22 462.29C284.78 453.07 290.14 453.6 290.14 453.6L303.17 411.37L321.51 302.36L321.67 302.38L328.71 279.55L274.46 259.07L309.77 197.37L355.29 188.53L361.33 167.02L329.73 152.98L351.24 112.57L400.93 105.23L449.57 112.55L472.8 153.27L439.12 166.86L443.45 188.18L490.52 195.55L526.24 263.15L473.54 279.35C473.55 279.35 475.85 286.65 479.22 297.33Z" fill="#30F1DD"/>
<path d="M770.75 438.94L743.88 404.66L702.33 315.38L640.79 306.49L646.44 314.97L641.93 313.81L650.67 374.72L634.06 369.58L624.04 310.63L589.85 305.15L600.92 367.26L583.43 364.63L574.65 300.41L540.83 297.45L549.42 364.61L533.96 304.85L498.01 296.86L500.28 304.84L481.42 301.65L476.75 369.43L473.64 299.66L439.62 300.4L442.37 335.47L437.73 337.43L435.62 300.72L402.71 296.98L407.83 365.68L387.37 365.3L391.89 293.85L362.1 305.17L363.99 297.62L330.96 306.07L322.35 340.97L319.61 332.75L305.73 337.38L303.52 341.9L305.1 301.47L274.35 305.05V304.71L256.48 307.32L257.74 303.74L220.99 308.71L214.76 328.27L206.63 303.89L144.03 310.92L146.74 322.67L143.46 332.86L143.67 326.44L131.37 309.36L65.2499 318.09L69.8599 337.83L45.9499 412.05L16.6099 454.1L116.35 414.12L119.96 405.84L116.96 415.16L152.85 405.56L162.95 372.1L169.79 370.69L170.45 372.66L160.5 406.48L191.93 399.9L191.41 401.53L224.88 396.97L233.71 371.91L243.24 375.44L241.68 401.34L273.28 397.03L273.29 398.26L299.93 396.04L308.15 381.77L311.08 386.65L307.58 400.86L339.92 393.93L354.92 333.95L353.64 396.89L410.27 395.59L441.11 396.34L439.82 373.87L445.18 371.28L446.94 393.72L474.94 395.77L474.87 396.76L505.68 398.27L507.38 379.17L519.83 373.71L526.42 396.92L557.92 397.43L557.66 396.43L611.28 402.86L610.84 401.08L622.28 403.04L659.82 409.98L659 406.73L697.46 418.46L691.3 393.82L706.48 398.16L717.72 421.63L762.03 443.66L761.85 443.26L765.75 445.17L770.75 438.94ZM137.01 352.85L130.63 372.68L125.06 366.42L137.01 352.85ZM211.51 338.41L206.12 355.34L201.96 350.3L211.51 338.41Z" fill="#FFED2E"/>
<path d="M224.88 396.94L233.71 371.88L243.24 375.41L241.68 401.31L273.28 397L273.29 398.23L299.93 396.01L308.15 381.74L311.08 386.62L307.58 400.83L339.92 393.9L347.98 361.68L347.25 363L274.45 349.97L272.92 356.87L211.62 341.54L210.01 343.15L206.12 355.35L202.36 350.8L200.12 353.04L144.18 333.88L138.82 350.74L68.2699 331.02L69.8599 337.81L45.9499 412.03L30.8899 433.62L23.1099 447.29L23.3499 451.38L116.36 414.1L119.97 405.82L116.97 415.14L152.86 405.54L162.96 372.08L169.8 370.67L170.46 372.64L160.51 406.46L191.94 399.88L191.42 401.51L224.88 396.94ZM130.63 372.67L125.06 366.41L137.01 352.85L130.63 372.67Z" fill="#FBC10F"/>
<path d="M761.84 443.22L765.74 445.13L770.75 438.94L743.88 404.66L713.62 339.65L647.43 352.06L650.68 374.71L634.07 369.58L630.11 346.27L598.17 351.78L600.93 367.26L583.44 364.63L581.98 353.99L548.53 357.57L549.43 364.61L544.11 344.05L477.52 361.46L477.37 360.46L476.75 369.43L475.89 350.09L475.22 345.37L410.08 360.69L407.51 361.25L407.84 365.68L387.38 365.3L387.49 363.51L354.45 356.78L353.64 396.85L410.27 395.55L441.11 396.3L439.82 373.84L445.18 371.25L446.94 393.69L474.94 395.74L474.87 396.73L505.68 398.25L507.38 379.15L519.83 373.68L526.42 396.89L557.92 397.4L557.66 396.4L611.28 402.83L610.84 401.05L622.27 403.01L659.81 409.95L659 406.69L697.45 418.43L691.29 393.78L706.47 398.12L717.71 421.59L762.02 443.62L761.84 443.22Z" fill="#FBC10F"/>
<path d="M165.97 348.58L178.47 346.29L186.85 331.21L170.45 333.74L165.97 348.58Z" fill="black"/>
<path d="M237.48 349.43L248.87 353.17L250.36 328.41L245.67 326.21L237.48 349.43Z" fill="black"/>
<path d="M507.88 329.811L505.42 357.351L517.73 350.651L512.32 331.591L507.88 329.811Z" fill="black"/>
<path d="M754.13 405.15L707.76 308.86L638.29 298.99L633.45 312.03L630.84 301.23L584.28 292.29L532.32 289.31L527.29 295.64L479.8 285.96L477.01 291.73L426.73 292.66L398.61 287.82L399.17 282.05L316.67 298.25L312.95 288.94L216.66 302.16L212.19 293.59L47.9299 312.21L59.6599 334.56L39.5499 403.28L0.439941 463.06L75.8699 485.97L161.91 454.12L165.82 446.3L212.19 435.13L246.27 433.45L252.97 440.15L302.14 432.89L307.73 440.71L342.37 430.09L345.16 435.68L430.09 436.8L432.32 430.1L483.16 436.25L486.51 430.1L503.83 428.42L507.18 436.24L580.93 443.5L584.28 438.47L645.37 458.58L649.84 454.48L720.61 485.95L799.58 461.55L754.13 405.15ZM27.9899 445.19L49.8499 413.86L74.2899 337.98L70.4499 321.53L129.67 313.71L139.73 327.68L139.17 344.44L119.8 366.43L128.56 376.28L113.47 410.92L27.9899 445.19ZM166.55 401.05L174.93 372.55L172.72 365.92L159.94 368.55L149.79 402.16L123.34 409.24L151.16 322.82L149.23 314.44L203.98 308.29L211.8 331.76L196.88 350.33L202.31 356.9L190.58 396.01L166.55 401.05ZM246.26 396.58L247.7 372.63L231.43 366.6L222.05 393.23L197.47 396.58L224.29 312.4L251.85 308.67L250.56 312.32L270.47 309.41L270.84 393.22L246.26 396.58ZM336.77 390.43L313.3 395.46L315.64 385.96L308.27 373.67L297.65 392.11L277.54 393.79L276.98 308.87L301 306.08L298.86 361.08L308.83 340.72L317.21 337.93L323.12 355.67L334.53 309.44L358.55 303.29L336.77 390.43ZM406.61 391.55L358 392.67L359.68 310.54L387.62 299.92L383.23 369.31L407.74 369.76L406.61 391.55ZM450.94 389.87L448.99 364.97L435.78 371.34L436.97 392.11L414.06 391.55L407.36 301.6L431.94 304.39L434.18 343.45L446.87 338.08L444.23 304.39L469.93 303.83L473.84 391.55L450.94 389.87ZM529.72 392.85L522.68 368.05L503.73 376.37L502.16 393.97L479.44 392.85L485.4 306.44L506.19 309.96L504.03 302.35L530.85 308.31L552.83 393.23L529.72 392.85ZM557.28 392.22L545.73 301.97L571.24 304.2L579.99 368.22L599.36 371.13L606.06 398.07L557.28 392.22ZM623.21 398.99L610.55 396.82L595.09 310.09L620.71 314.19L630.66 372.73L647.79 378.03L654.49 404.76L623.21 398.99ZM720.98 418.55L709.56 394.69L685.81 387.9L691.93 412.4L658.97 402.34L647.05 319.28L655.97 321.58L649.47 311.83L699.75 319.09L740.57 406.8L767.73 441.45L753.44 434.45L753.58 434.75L720.98 418.55Z" fill="black"/>
<path d="M90.9199 355.37L107.88 350.58L115.71 337.17L95.7599 340.51L90.9199 355.37Z" fill="black"/>
<path d="M82.59 380.96L75.45 402.87L96.71 394.16L103.41 381.87L100.66 374.39L82.59 380.96Z" fill="black"/>
<path d="M673.09 337.05L679.01 360.72L696.27 366.94L682.99 339.22L673.09 337.05Z" fill="black"/>
</svg>